<svg width="40" height="40" viewBox="0 0 40 40" fill="none" xmlns="http://www.w3.org/2000/svg">
<path fill-rule="evenodd" clip-rule="evenodd" d="M38.0959 11.6031C36.4992 9.14265 33.3127 8.26369 30.6791 9.55566C27.8672 10.9853 26.7456 14.4217 28.171 17.2334C28.9853 18.836 30.5061 19.9638 32.2759 20.2762C32.0604 27.0538 26.3905 32.377 19.6096 32.1617C13.0248 31.9534 7.77709 26.5861 7.71704 19.9974C7.70644 14.9212 10.8611 10.3781 15.6231 8.61669C16.538 8.28663 17.0679 7.32824 16.856 6.37691L16.8418 6.31867C16.6087 5.27732 17.2622 4.24657 18.3008 4.01183C18.3856 3.99418 18.4721 3.98006 18.5587 3.973C19.0356 3.92887 19.5178 3.90593 20 3.90593C20.597 3.90593 21.1958 3.94123 21.7875 4.00477C22.8614 4.12302 23.8294 3.34642 23.9442 2.27507C23.9495 2.23977 23.953 2.20094 23.9548 2.16564C23.983 1.10135 23.1741 0.199444 22.1143 0.111194C21.4113 0.0352998 20.7048 0 20 0C8.95522 0 0 8.95557 0 20.0009C0 31.048 8.95522 40 20 40C31.0465 40 40 31.048 40 20.0009C40 18.0453 39.6061 13.8305 38.0959 11.6031Z" fill="white"/>
<path fill-rule="evenodd" clip-rule="evenodd" d="M27.8696 1.51819C29.0275 1.51819 29.966 2.44599 29.966 3.59012C29.966 4.73425 29.0275 5.66205 27.8696 5.66205C26.7119 5.66205 25.7733 4.73425 25.7733 3.59012C25.7733 2.44599 26.7119 1.51819 27.8696 1.51819Z" fill="white"/>
</svg>
